<svg xmlns="http://www.w3.org/2000/svg" xmlns:xlink="http://www.w3.org/1999/xlink" width="1496" height="661" viewBox="363 -57 1496 661"><defs><clipPath id="b"><rect x="363" y="-57" width="1496" height="661"/></clipPath></defs><g id="a" clip-path="url(#b)"><rect x="363" y="-57" width="1496" height="661" fill="#fff"/><g transform="translate(462.5 172.475)"><g transform="translate(0 0.025)"><path d="M232.8,55.925,210.765,35.659a6.951,6.951,0,0,0-5.141-2.027h-58.75V13.367a6.61,6.61,0,0,0-5.141-6.08L119.7.532a5.043,5.043,0,0,0-4.406,0L93.265,7.287a6.61,6.61,0,0,0-5.141,6.08V33.632H58.75c-4.406,0-7.344,2.7-7.344,6.755V80.919c0,4.053,2.937,6.755,7.344,6.755H88.125v13.511H29.375a6.951,6.951,0,0,0-5.141,2.027L2.2,123.478a6.176,6.176,0,0,0,0,9.457L24.234,153.2a6.951,6.951,0,0,0,5.141,2.027h58.75V209.27c0,4.053,2.937,6.755,7.344,6.755h44.062c4.406,0,7.344-2.7,7.344-6.755V155.227H176.25c4.406,0,7.344-2.7,7.344-6.755V107.941c0-4.053-2.937-6.755-7.344-6.755H146.875V87.675h58.75a6.951,6.951,0,0,0,5.141-2.027L232.8,65.382A6.176,6.176,0,0,0,232.8,55.925ZM102.812,18.1,117.5,13.367,132.187,18.1V33.632H102.812Zm29.375,184.419H102.812V155.227h29.375Zm36.719-60.8H32.312L17.625,128.206,32.312,114.7H168.906Zm-36.719-40.532H102.812V87.675h29.375Zm70.5-27.021H66.094V47.143H202.687l14.687,13.511Z" transform="translate(0 -0.025)" fill="#0fd4cb"/></g></g><line y2="301" transform="translate(768 123)" fill="none" stroke="#777" stroke-width="10"/><text transform="translate(851 311)" fill="#707070" font-size="100" font-family="Montserrat-Bold, Montserrat" font-weight="700"><tspan x="0" y="0">Hotel Bombinhas</tspan></text></g></svg>